<?xml version="1.0" standalone="no"?>
<!DOCTYPE svg PUBLIC "-//W3C//DTD SVG 20010904//EN"
 "http://www.w3.org/TR/2001/REC-SVG-20010904/DTD/svg10.dtd">
<svg version="1.0" xmlns="http://www.w3.org/2000/svg"
 width="260.000000pt" height="260.000000pt" viewBox="0 0 260.000000 260.000000"
 preserveAspectRatio="xMidYMid meet">
<metadata>
Created by potrace 1.14, written by Peter Selinger 2001-2017
</metadata>
<g transform="translate(0.000000,260.000000) scale(0.100000,-0.100000)"
fill="#000000" stroke="none">
<path d="M620 2595 c0 -7 501 -1219 506 -1224 2 -2 4 273 4 612 l0 617 -255 0
c-140 0 -255 -2 -255 -5z"/>
<path d="M1590 2015 l0 -518 183 6 c310 10 482 69 615 212 161 173 179 467 38
623 -114 125 -291 178 -643 189 l-193 6 0 -518z"/>
<path d="M132 1872 l-132 -317 0 -347 0 -348 410 0 c226 0 410 3 410 7 0 11
-541 1306 -549 1315 -3 4 -66 -136 -139 -310z"/>
<path d="M2555 1475 c-22 -14 -79 -41 -128 -62 -48 -20 -85 -39 -81 -42 4 -5
162 -63 237 -88 15 -5 17 4 17 106 0 61 -1 111 -2 111 -2 0 -21 -12 -43 -25z"/>
<path d="M1590 733 l0 -488 32 -77 32 -78 150 0 c457 1 649 57 760 224 l36 54
0 204 0 203 -29 50 c-91 160 -287 292 -518 351 -89 22 -289 44 -410 44 l-53 0
0 -487z"/>
<path d="M0 265 l0 -265 565 0 565 0 -1 68 c0 61 -8 85 -82 262 l-82 195 -483
3 -482 2 0 -265z"/>
</g>
</svg>
